<svg width="219" height="54" viewBox="0 0 219 54" fill="none" xmlns="http://www.w3.org/2000/svg">
<path d="M167.975 5.5L167.975 20.5" stroke="#56976E" stroke-width="1.5" stroke-linecap="round" stroke-linejoin="round"/>
<path d="M161.951 10.5498L167.975 4.4998L174 10.5498" stroke="#56976E" stroke-width="1.5" stroke-linecap="round" stroke-linejoin="round"/>
<path d="M186.253 18V16.4773L190.293 12.517C190.679 12.1269 191.001 11.7803 191.259 11.4773C191.516 11.1742 191.709 10.8807 191.838 10.5966C191.967 10.3125 192.031 10.0095 192.031 9.6875C192.031 9.32008 191.948 9.00568 191.781 8.74432C191.615 8.47917 191.385 8.27462 191.094 8.13068C190.802 7.98674 190.471 7.91477 190.099 7.91477C189.717 7.91477 189.382 7.99432 189.094 8.15341C188.806 8.30871 188.582 8.5303 188.423 8.81818C188.268 9.10606 188.19 9.44886 188.19 9.84659H186.185C186.185 9.10795 186.353 8.46591 186.69 7.92045C187.027 7.375 187.491 6.95265 188.082 6.65341C188.677 6.35417 189.359 6.20455 190.128 6.20455C190.908 6.20455 191.594 6.35038 192.185 6.64205C192.776 6.93371 193.234 7.33333 193.56 7.84091C193.889 8.34848 194.054 8.92803 194.054 9.57955C194.054 10.0152 193.971 10.4432 193.804 10.8636C193.637 11.2841 193.344 11.75 192.923 12.2614C192.507 12.7727 191.921 13.392 191.168 14.1193L189.162 16.1591V16.2386H194.23V18H186.253ZM200.236 18.1591C199.478 18.1591 198.8 18.017 198.202 17.733C197.603 17.4451 197.128 17.0511 196.776 16.5511C196.427 16.0511 196.241 15.4792 196.219 14.8352H198.264C198.302 15.3125 198.509 15.7027 198.884 16.0057C199.259 16.3049 199.709 16.4545 200.236 16.4545C200.649 16.4545 201.016 16.3598 201.338 16.1705C201.66 15.9811 201.914 15.7178 202.099 15.3807C202.285 15.0436 202.376 14.6591 202.372 14.2273C202.376 13.7879 202.283 13.3977 202.094 13.0568C201.904 12.7159 201.645 12.4489 201.315 12.2557C200.986 12.0587 200.607 11.9602 200.179 11.9602C199.83 11.9564 199.488 12.0208 199.151 12.1534C198.813 12.286 198.546 12.4602 198.349 12.6761L196.446 12.3636L197.054 6.36364H203.804V8.125H198.798L198.463 11.2102H198.531C198.747 10.9564 199.052 10.7462 199.446 10.5795C199.84 10.4091 200.272 10.3239 200.741 10.3239C201.446 10.3239 202.075 10.4905 202.628 10.8239C203.181 11.1534 203.616 11.608 203.935 12.1875C204.253 12.767 204.412 13.4299 204.412 14.1761C204.412 14.9451 204.234 15.6307 203.878 16.233C203.526 16.8314 203.035 17.303 202.406 17.6477C201.781 17.9886 201.058 18.1591 200.236 18.1591ZM212.537 15.8182V15.2045C212.537 14.7538 212.632 14.339 212.821 13.9602C213.014 13.5814 213.295 13.2765 213.662 13.0455C214.029 12.8144 214.474 12.6989 214.997 12.6989C215.535 12.6989 215.986 12.8144 216.349 13.0455C216.713 13.2727 216.988 13.5758 217.173 13.9545C217.363 14.3333 217.457 14.75 217.457 15.2045V15.8182C217.457 16.2689 217.363 16.6837 217.173 17.0625C216.984 17.4413 216.705 17.7462 216.338 17.9773C215.974 18.2083 215.527 18.3239 214.997 18.3239C214.467 18.3239 214.018 18.2083 213.651 17.9773C213.283 17.7462 213.005 17.4413 212.815 17.0625C212.63 16.6837 212.537 16.2689 212.537 15.8182ZM214.02 15.2045V15.8182C214.02 16.1174 214.092 16.392 214.236 16.642C214.38 16.892 214.634 17.017 214.997 17.017C215.365 17.017 215.616 16.8939 215.753 16.6477C215.893 16.3977 215.963 16.1212 215.963 15.8182V15.2045C215.963 14.9015 215.897 14.625 215.764 14.375C215.632 14.1212 215.376 13.9943 214.997 13.9943C214.641 13.9943 214.389 14.1212 214.241 14.375C214.094 14.625 214.02 14.9015 214.02 15.2045ZM206.622 9.15909V8.54545C206.622 8.09091 206.719 7.67424 206.912 7.29545C207.105 6.91667 207.385 6.61364 207.753 6.38636C208.12 6.1553 208.565 6.03977 209.088 6.03977C209.622 6.03977 210.071 6.1553 210.435 6.38636C210.802 6.61364 211.079 6.91667 211.264 7.29545C211.45 7.67424 211.543 8.09091 211.543 8.54545V9.15909C211.543 9.61364 211.448 10.0303 211.259 10.4091C211.073 10.7841 210.796 11.0852 210.429 11.3125C210.062 11.5398 209.615 11.6534 209.088 11.6534C208.554 11.6534 208.103 11.5398 207.736 11.3125C207.372 11.0852 207.096 10.7822 206.906 10.4034C206.717 10.0246 206.622 9.60985 206.622 9.15909ZM208.116 8.54545V9.15909C208.116 9.46212 208.187 9.73864 208.327 9.98864C208.471 10.2348 208.724 10.358 209.088 10.358C209.452 10.358 209.702 10.2348 209.838 9.98864C209.978 9.73864 210.048 9.46212 210.048 9.15909V8.54545C210.048 8.24242 209.982 7.96591 209.849 7.71591C209.717 7.46212 209.463 7.33523 209.088 7.33523C208.728 7.33523 208.476 7.46212 208.332 7.71591C208.188 7.9697 208.116 8.24621 208.116 8.54545ZM207.27 18L215.27 6.36364H216.69L208.69 18H207.27Z" fill="#56976E"/>
<path d="M55.1541 41.6477H53.3814C53.3132 41.2689 53.1863 40.9356 53.0007 40.6477C52.8151 40.3598 52.5878 40.1155 52.3189 39.9148C52.05 39.714 51.7488 39.5625 51.4155 39.4602C51.0859 39.358 50.7356 39.3068 50.3643 39.3068C49.6939 39.3068 49.0935 39.4754 48.5632 39.8125C48.0367 40.1496 47.62 40.6439 47.3132 41.2955C47.0102 41.947 46.8587 42.7424 46.8587 43.6818C46.8587 44.6288 47.0102 45.428 47.3132 46.0795C47.62 46.7311 48.0386 47.2235 48.5689 47.5568C49.0992 47.8902 49.6958 48.0568 50.3587 48.0568C50.7261 48.0568 51.0746 48.0076 51.4041 47.9091C51.7375 47.8068 52.0386 47.6572 52.3075 47.4602C52.5765 47.2633 52.8037 47.0227 52.9893 46.7386C53.1787 46.4508 53.3094 46.1212 53.3814 45.75L55.1541 45.7557C55.0594 46.3277 54.8757 46.8542 54.603 47.3352C54.334 47.8125 53.9875 48.2254 53.5632 48.5739C53.1428 48.9186 52.6617 49.1856 52.12 49.375C51.5784 49.5644 50.9875 49.6591 50.3473 49.6591C49.3397 49.6591 48.442 49.4205 47.6541 48.9432C46.8662 48.4621 46.245 47.7746 45.7905 46.8807C45.3397 45.9867 45.1143 44.9205 45.1143 43.6818C45.1143 42.4394 45.3416 41.3731 45.7962 40.483C46.2507 39.589 46.8719 38.9034 47.6598 38.4261C48.4477 37.9451 49.3435 37.7045 50.3473 37.7045C50.9647 37.7045 51.5405 37.7936 52.0746 37.9716C52.6125 38.1458 53.0954 38.4034 53.5234 38.7443C53.9515 39.0814 54.3056 39.4943 54.5859 39.983C54.8662 40.4678 55.0556 41.0227 55.1541 41.6477ZM60.7947 49.6761C59.9766 49.6761 59.2625 49.4886 58.6527 49.1136C58.0429 48.7386 57.5694 48.214 57.2322 47.5398C56.8951 46.8655 56.7266 46.0777 56.7266 45.1761C56.7266 44.2708 56.8951 43.4792 57.2322 42.8011C57.5694 42.1231 58.0429 41.5966 58.6527 41.2216C59.2625 40.8466 59.9766 40.6591 60.7947 40.6591C61.6129 40.6591 62.3269 40.8466 62.9368 41.2216C63.5466 41.5966 64.0201 42.1231 64.3572 42.8011C64.6944 43.4792 64.8629 44.2708 64.8629 45.1761C64.8629 46.0777 64.6944 46.8655 64.3572 47.5398C64.0201 48.214 63.5466 48.7386 62.9368 49.1136C62.3269 49.4886 61.6129 49.6761 60.7947 49.6761ZM60.8004 48.25C61.3307 48.25 61.7701 48.1098 62.1186 47.8295C62.4671 47.5492 62.7247 47.1761 62.8913 46.7102C63.0618 46.2443 63.147 45.7311 63.147 45.1705C63.147 44.6136 63.0618 44.1023 62.8913 43.6364C62.7247 43.1667 62.4671 42.7898 62.1186 42.5057C61.7701 42.2216 61.3307 42.0795 60.8004 42.0795C60.2663 42.0795 59.8232 42.2216 59.4709 42.5057C59.1224 42.7898 58.8629 43.1667 58.6925 43.6364C58.5258 44.1023 58.4425 44.6136 58.4425 45.1705C58.4425 45.7311 58.5258 46.2443 58.6925 46.7102C58.8629 47.1761 59.1224 47.5492 59.4709 47.8295C59.8232 48.1098 60.2663 48.25 60.8004 48.25ZM66.7592 49.5V40.7727H68.3899V42.1932H68.4979C68.6797 41.7121 68.977 41.3371 69.3899 41.0682C69.8028 40.7955 70.2971 40.6591 70.8729 40.6591C71.4562 40.6591 71.9448 40.7955 72.3388 41.0682C72.7365 41.3409 73.0301 41.7159 73.2195 42.1932H73.3104C73.5187 41.7273 73.8501 41.3561 74.3047 41.0795C74.7592 40.7992 75.3009 40.6591 75.9297 40.6591C76.7214 40.6591 77.3672 40.9072 77.8672 41.4034C78.371 41.8996 78.6229 42.6477 78.6229 43.6477V49.5H76.924V43.8068C76.924 43.2159 76.763 42.7879 76.4411 42.5227C76.1191 42.2576 75.7346 42.125 75.2876 42.125C74.7346 42.125 74.3047 42.2955 73.9979 42.6364C73.6911 42.9735 73.5376 43.4072 73.5376 43.9375V49.5H71.8445V43.6989C71.8445 43.2254 71.6967 42.8447 71.4013 42.5568C71.1058 42.2689 70.7214 42.125 70.2479 42.125C69.9259 42.125 69.6286 42.2102 69.3558 42.3807C69.0869 42.5473 68.8691 42.7803 68.7024 43.0795C68.5395 43.3788 68.4581 43.7254 68.4581 44.1193V49.5H66.7592ZM80.8999 52.7727V40.7727H82.5589V42.1875H82.701C82.7995 42.0057 82.9415 41.7955 83.1271 41.5568C83.3127 41.3182 83.5703 41.1098 83.8999 40.9318C84.2294 40.75 84.665 40.6591 85.2067 40.6591C85.9112 40.6591 86.54 40.8371 87.093 41.1932C87.6461 41.5492 88.0798 42.0625 88.3942 42.733C88.7124 43.4034 88.8714 44.2102 88.8714 45.1534C88.8714 46.0966 88.7143 46.9053 88.3999 47.5795C88.0855 48.25 87.6536 48.767 87.1044 49.1307C86.5552 49.4905 85.9283 49.6705 85.2237 49.6705C84.6934 49.6705 84.2597 49.5814 83.9226 49.4034C83.5893 49.2254 83.3279 49.017 83.1385 48.7784C82.9491 48.5398 82.8033 48.3277 82.701 48.142H82.5987V52.7727H80.8999ZM82.5646 45.1364C82.5646 45.75 82.6536 46.2879 82.8317 46.75C83.0097 47.2121 83.2673 47.5739 83.6044 47.8352C83.9415 48.0928 84.3544 48.2216 84.843 48.2216C85.3506 48.2216 85.7749 48.0871 86.1158 47.8182C86.4567 47.5455 86.7143 47.1761 86.8885 46.7102C87.0665 46.2443 87.1555 45.7197 87.1555 45.1364C87.1555 44.5606 87.0684 44.0436 86.8942 43.5852C86.7237 43.1269 86.4661 42.7652 86.1214 42.5C85.7805 42.2348 85.3544 42.1023 84.843 42.1023C84.3506 42.1023 83.9339 42.2292 83.593 42.483C83.2559 42.7367 83.0002 43.0909 82.826 43.5455C82.6518 44 82.5646 44.5303 82.5646 45.1364ZM93.3146 49.6932C92.7616 49.6932 92.2616 49.5909 91.8146 49.3864C91.3677 49.178 91.0135 48.8769 90.7521 48.483C90.4946 48.089 90.3658 47.6061 90.3658 47.0341C90.3658 46.5417 90.4605 46.1364 90.6499 45.8182C90.8393 45.5 91.0949 45.2481 91.4169 45.0625C91.7389 44.8769 92.0987 44.7367 92.4964 44.642C92.8942 44.5473 93.2995 44.4754 93.7124 44.4261C94.2351 44.3655 94.6593 44.3163 94.9851 44.2784C95.3108 44.2367 95.5476 44.1705 95.6953 44.0795C95.843 43.9886 95.9169 43.8409 95.9169 43.6364V43.5966C95.9169 43.1004 95.7768 42.7159 95.4964 42.4432C95.2199 42.1705 94.8071 42.0341 94.2578 42.0341C93.6858 42.0341 93.2351 42.161 92.9055 42.4148C92.5798 42.6648 92.3544 42.9432 92.2294 43.25L90.6328 42.8864C90.8222 42.3561 91.0987 41.928 91.4624 41.6023C91.8298 41.2727 92.2521 41.0341 92.7294 40.8864C93.2067 40.7348 93.7086 40.6591 94.2351 40.6591C94.5836 40.6591 94.9529 40.7008 95.343 40.7841C95.737 40.8636 96.1044 41.0114 96.4453 41.2273C96.79 41.4432 97.0722 41.7519 97.2919 42.1534C97.5116 42.5511 97.6214 43.0682 97.6214 43.7045V49.5H95.9624V48.3068H95.8942C95.7843 48.5265 95.6196 48.7424 95.3999 48.9545C95.1802 49.1667 94.898 49.3428 94.5533 49.483C94.2086 49.6231 93.7957 49.6932 93.3146 49.6932ZM93.6839 48.3295C94.1536 48.3295 94.5552 48.2367 94.8885 48.0511C95.2256 47.8655 95.4813 47.6231 95.6555 47.3239C95.8336 47.0208 95.9226 46.697 95.9226 46.3523V45.2273C95.862 45.2879 95.7446 45.3447 95.5703 45.3977C95.3999 45.447 95.2048 45.4905 94.9851 45.5284C94.7654 45.5625 94.5514 45.5947 94.343 45.625C94.1347 45.6515 93.9605 45.6742 93.8203 45.6932C93.4908 45.7348 93.1896 45.8049 92.9169 45.9034C92.648 46.0019 92.4321 46.1439 92.2692 46.3295C92.1101 46.5114 92.0305 46.7538 92.0305 47.0568C92.0305 47.4773 92.1858 47.7955 92.4964 48.0114C92.8071 48.2235 93.2029 48.3295 93.6839 48.3295ZM99.8842 49.5V40.7727H101.526V42.1591H101.617C101.776 41.6894 102.057 41.3201 102.458 41.0511C102.863 40.7784 103.322 40.642 103.833 40.642C103.939 40.642 104.064 40.6458 104.208 40.6534C104.356 40.661 104.471 40.6705 104.555 40.6818V42.3068C104.487 42.2879 104.365 42.267 104.191 42.2443C104.017 42.2178 103.843 42.2045 103.668 42.2045C103.267 42.2045 102.909 42.2898 102.594 42.4602C102.284 42.6269 102.038 42.8598 101.856 43.1591C101.674 43.4545 101.583 43.7917 101.583 44.1705V49.5H99.8842ZM108.487 49.6932C107.933 49.6932 107.433 49.5909 106.987 49.3864C106.54 49.178 106.185 48.8769 105.924 48.483C105.666 48.089 105.538 47.6061 105.538 47.0341C105.538 46.5417 105.632 46.1364 105.822 45.8182C106.011 45.5 106.267 45.2481 106.589 45.0625C106.911 44.8769 107.271 44.7367 107.668 44.642C108.066 44.5473 108.471 44.4754 108.884 44.4261C109.407 44.3655 109.831 44.3163 110.157 44.2784C110.483 44.2367 110.719 44.1705 110.867 44.0795C111.015 43.9886 111.089 43.8409 111.089 43.6364V43.5966C111.089 43.1004 110.949 42.7159 110.668 42.4432C110.392 42.1705 109.979 42.0341 109.43 42.0341C108.858 42.0341 108.407 42.161 108.077 42.4148C107.752 42.6648 107.526 42.9432 107.401 43.25L105.805 42.8864C105.994 42.3561 106.271 41.928 106.634 41.6023C107.002 41.2727 107.424 41.0341 107.901 40.8864C108.379 40.7348 108.88 40.6591 109.407 40.6591C109.755 40.6591 110.125 40.7008 110.515 40.7841C110.909 40.8636 111.276 41.0114 111.617 41.2273C111.962 41.4432 112.244 41.7519 112.464 42.1534C112.683 42.5511 112.793 43.0682 112.793 43.7045V49.5H111.134V48.3068H111.066C110.956 48.5265 110.791 48.7424 110.572 48.9545C110.352 49.1667 110.07 49.3428 109.725 49.483C109.38 49.6231 108.968 49.6932 108.487 49.6932ZM108.856 48.3295C109.326 48.3295 109.727 48.2367 110.06 48.0511C110.397 47.8655 110.653 47.6231 110.827 47.3239C111.005 47.0208 111.094 46.697 111.094 46.3523V45.2273C111.034 45.2879 110.916 45.3447 110.742 45.3977C110.572 45.447 110.377 45.4905 110.157 45.5284C109.937 45.5625 109.723 45.5947 109.515 45.625C109.307 45.6515 109.132 45.6742 108.992 45.6932C108.663 45.7348 108.362 45.8049 108.089 45.9034C107.82 46.0019 107.604 46.1439 107.441 46.3295C107.282 46.5114 107.202 46.7538 107.202 47.0568C107.202 47.4773 107.358 47.7955 107.668 48.0114C107.979 48.2235 108.375 48.3295 108.856 48.3295ZM118.323 49.6705C117.619 49.6705 116.99 49.4905 116.437 49.1307C115.888 48.767 115.456 48.25 115.141 47.5795C114.831 46.9053 114.675 46.0966 114.675 45.1534C114.675 44.2102 114.833 43.4034 115.147 42.733C115.465 42.0625 115.901 41.5492 116.454 41.1932C117.007 40.8371 117.634 40.6591 118.335 40.6591C118.876 40.6591 119.312 40.75 119.641 40.9318C119.975 41.1098 120.232 41.3182 120.414 41.5568C120.6 41.7955 120.744 42.0057 120.846 42.1875H120.948V37.8636H122.647V49.5H120.988V48.142H120.846C120.744 48.3277 120.596 48.5398 120.403 48.7784C120.213 49.017 119.952 49.2254 119.619 49.4034C119.285 49.5814 118.853 49.6705 118.323 49.6705ZM118.698 48.2216C119.187 48.2216 119.6 48.0928 119.937 47.8352C120.278 47.5739 120.535 47.2121 120.71 46.75C120.888 46.2879 120.977 45.75 120.977 45.1364C120.977 44.5303 120.889 44 120.715 43.5455C120.541 43.0909 120.285 42.7367 119.948 42.483C119.611 42.2292 119.194 42.1023 118.698 42.1023C118.187 42.1023 117.761 42.2348 117.42 42.5C117.079 42.7652 116.821 43.1269 116.647 43.5852C116.477 44.0436 116.391 44.5606 116.391 45.1364C116.391 45.7197 116.478 46.2443 116.653 46.7102C116.827 47.1761 117.085 47.5455 117.425 47.8182C117.77 48.0871 118.194 48.2216 118.698 48.2216ZM128.748 49.6761C127.93 49.6761 127.216 49.4886 126.606 49.1136C125.996 48.7386 125.522 48.214 125.185 47.5398C124.848 46.8655 124.68 46.0777 124.68 45.1761C124.68 44.2708 124.848 43.4792 125.185 42.8011C125.522 42.1231 125.996 41.5966 126.606 41.2216C127.216 40.8466 127.93 40.6591 128.748 40.6591C129.566 40.6591 130.28 40.8466 130.89 41.2216C131.5 41.5966 131.973 42.1231 132.31 42.8011C132.647 43.4792 132.816 44.2708 132.816 45.1761C132.816 46.0777 132.647 46.8655 132.31 47.5398C131.973 48.214 131.5 48.7386 130.89 49.1136C130.28 49.4886 129.566 49.6761 128.748 49.6761ZM128.754 48.25C129.284 48.25 129.723 48.1098 130.072 47.8295C130.42 47.5492 130.678 47.1761 130.844 46.7102C131.015 46.2443 131.1 45.7311 131.1 45.1705C131.1 44.6136 131.015 44.1023 130.844 43.6364C130.678 43.1667 130.42 42.7898 130.072 42.5057C129.723 42.2216 129.284 42.0795 128.754 42.0795C128.219 42.0795 127.776 42.2216 127.424 42.5057C127.076 42.7898 126.816 43.1667 126.646 43.6364C126.479 44.1023 126.396 44.6136 126.396 45.1705C126.396 45.7311 126.479 46.2443 126.646 46.7102C126.816 47.1761 127.076 47.5492 127.424 47.8295C127.776 48.1098 128.219 48.25 128.754 48.25ZM142.623 49.6761C141.778 49.6761 141.051 49.4848 140.441 49.1023C139.835 48.7159 139.369 48.1837 139.043 47.5057C138.718 46.8277 138.555 46.0511 138.555 45.1761C138.555 44.2898 138.721 43.5076 139.055 42.8295C139.388 42.1477 139.858 41.6155 140.464 41.233C141.07 40.8504 141.784 40.6591 142.606 40.6591C143.269 40.6591 143.86 40.7822 144.379 41.0284C144.897 41.2708 145.316 41.6117 145.634 42.0511C145.956 42.4905 146.147 43.0038 146.208 43.5909H144.555C144.464 43.1818 144.255 42.8295 143.93 42.5341C143.608 42.2386 143.176 42.0909 142.634 42.0909C142.161 42.0909 141.746 42.2159 141.39 42.4659C141.038 42.7121 140.763 43.0644 140.566 43.5227C140.369 43.9773 140.271 44.5152 140.271 45.1364C140.271 45.7727 140.367 46.322 140.56 46.7841C140.754 47.2462 141.026 47.6042 141.379 47.858C141.735 48.1117 142.153 48.2386 142.634 48.2386C142.956 48.2386 143.248 48.1799 143.509 48.0625C143.774 47.9413 143.996 47.7689 144.174 47.5455C144.356 47.322 144.483 47.053 144.555 46.7386H146.208C146.147 47.303 145.964 47.8068 145.657 48.25C145.35 48.6932 144.939 49.0417 144.424 49.2955C143.913 49.5492 143.312 49.6761 142.623 49.6761ZM151.701 49.6761C150.883 49.6761 150.169 49.4886 149.559 49.1136C148.949 48.7386 148.476 48.214 148.138 47.5398C147.801 46.8655 147.633 46.0777 147.633 45.1761C147.633 44.2708 147.801 43.4792 148.138 42.8011C148.476 42.1231 148.949 41.5966 149.559 41.2216C150.169 40.8466 150.883 40.6591 151.701 40.6591C152.519 40.6591 153.233 40.8466 153.843 41.2216C154.453 41.5966 154.926 42.1231 155.263 42.8011C155.601 43.4792 155.769 44.2708 155.769 45.1761C155.769 46.0777 155.601 46.8655 155.263 47.5398C154.926 48.214 154.453 48.7386 153.843 49.1136C153.233 49.4886 152.519 49.6761 151.701 49.6761ZM151.707 48.25C152.237 48.25 152.676 48.1098 153.025 47.8295C153.373 47.5492 153.631 47.1761 153.798 46.7102C153.968 46.2443 154.053 45.7311 154.053 45.1705C154.053 44.6136 153.968 44.1023 153.798 43.6364C153.631 43.1667 153.373 42.7898 153.025 42.5057C152.676 42.2216 152.237 42.0795 151.707 42.0795C151.173 42.0795 150.729 42.2216 150.377 42.5057C150.029 42.7898 149.769 43.1667 149.599 43.6364C149.432 44.1023 149.349 44.6136 149.349 45.1705C149.349 45.7311 149.432 46.2443 149.599 46.7102C149.769 47.1761 150.029 47.5492 150.377 47.8295C150.729 48.1098 151.173 48.25 151.707 48.25ZM157.665 49.5V40.7727H159.296V42.1932H159.404C159.586 41.7121 159.883 41.3371 160.296 41.0682C160.709 40.7955 161.203 40.6591 161.779 40.6591C162.362 40.6591 162.851 40.7955 163.245 41.0682C163.643 41.3409 163.936 41.7159 164.126 42.1932H164.217C164.425 41.7273 164.756 41.3561 165.211 41.0795C165.665 40.7992 166.207 40.6591 166.836 40.6591C167.628 40.6591 168.273 40.9072 168.773 41.4034C169.277 41.8996 169.529 42.6477 169.529 43.6477V49.5H167.83V43.8068C167.83 43.2159 167.669 42.7879 167.347 42.5227C167.025 42.2576 166.641 42.125 166.194 42.125C165.641 42.125 165.211 42.2955 164.904 42.6364C164.597 42.9735 164.444 43.4072 164.444 43.9375V49.5H162.751V43.6989C162.751 43.2254 162.603 42.8447 162.308 42.5568C162.012 42.2689 161.628 42.125 161.154 42.125C160.832 42.125 160.535 42.2102 160.262 42.3807C159.993 42.5473 159.775 42.7803 159.609 43.0795C159.446 43.3788 159.364 43.7254 159.364 44.1193V49.5H157.665ZM180.069 49.6932C179.171 49.6894 178.404 49.4527 177.768 48.983C177.131 48.5133 176.645 47.8295 176.308 46.9318C175.97 46.0341 175.802 44.9527 175.802 43.6875C175.802 42.4261 175.97 41.3485 176.308 40.4545C176.648 39.5606 177.137 38.8788 177.773 38.4091C178.414 37.9394 179.179 37.7045 180.069 37.7045C180.959 37.7045 181.722 37.9413 182.359 38.4148C182.995 38.8845 183.482 39.5663 183.819 40.4602C184.16 41.3504 184.33 42.4261 184.33 43.6875C184.33 44.9564 184.162 46.0398 183.825 46.9375C183.487 47.8314 183.001 48.5152 182.364 48.9886C181.728 49.4583 180.963 49.6932 180.069 49.6932ZM180.069 48.1761C180.857 48.1761 181.472 47.7917 181.915 47.0227C182.362 46.2538 182.586 45.142 182.586 43.6875C182.586 42.7216 182.484 41.9053 182.279 41.2386C182.078 40.5682 181.789 40.0606 181.41 39.7159C181.035 39.3674 180.588 39.1932 180.069 39.1932C179.285 39.1932 178.669 39.5795 178.222 40.3523C177.775 41.125 177.55 42.2367 177.546 43.6875C177.546 44.6572 177.647 45.4773 177.847 46.1477C178.052 46.8144 178.342 47.3201 178.717 47.6648C179.092 48.0057 179.542 48.1761 180.069 48.1761ZM190.761 37.8636V49.5H188.999V39.625H188.931L186.147 41.4432V39.7614L189.05 37.8636H190.761ZM198.363 37.3182L194.613 51.25H193.096L196.846 37.3182H198.363ZM199.783 49.5V48.2273L203.721 44.1477C204.141 43.7045 204.488 43.3163 204.761 42.983C205.037 42.6458 205.244 42.3258 205.38 42.0227C205.516 41.7197 205.585 41.3977 205.585 41.0568C205.585 40.6705 205.494 40.3371 205.312 40.0568C205.13 39.7727 204.882 39.5549 204.567 39.4034C204.253 39.2481 203.899 39.1705 203.505 39.1705C203.088 39.1705 202.725 39.2557 202.414 39.4261C202.103 39.5966 201.865 39.8371 201.698 40.1477C201.531 40.4583 201.448 40.822 201.448 41.2386H199.772C199.772 40.5303 199.935 39.911 200.261 39.3807C200.586 38.8504 201.033 38.4394 201.602 38.1477C202.17 37.8523 202.816 37.7045 203.539 37.7045C204.27 37.7045 204.914 37.8504 205.471 38.142C206.031 38.4299 206.469 38.8239 206.783 39.3239C207.098 39.8201 207.255 40.3807 207.255 41.0057C207.255 41.4375 207.174 41.8598 207.011 42.2727C206.852 42.6856 206.573 43.1458 206.175 43.6534C205.778 44.1572 205.225 44.7689 204.516 45.4886L202.204 47.9091V47.9943H207.442V49.5H199.783ZM213.647 49.6591C212.867 49.6591 212.17 49.5246 211.556 49.2557C210.946 48.9867 210.463 48.6136 210.107 48.1364C209.755 47.6553 209.566 47.0985 209.539 46.4659H211.323C211.346 46.8106 211.461 47.1098 211.67 47.3636C211.882 47.6136 212.158 47.8068 212.499 47.9432C212.84 48.0795 213.219 48.1477 213.636 48.1477C214.094 48.1477 214.499 48.0682 214.852 47.9091C215.208 47.75 215.486 47.5284 215.687 47.2443C215.888 46.9564 215.988 46.625 215.988 46.25C215.988 45.8598 215.888 45.517 215.687 45.2216C215.49 44.9223 215.2 44.6875 214.817 44.517C214.439 44.3466 213.98 44.2614 213.442 44.2614H212.46V42.8295H213.442C213.874 42.8295 214.253 42.7519 214.579 42.5966C214.908 42.4413 215.166 42.2254 215.352 41.9489C215.537 41.6686 215.63 41.3409 215.63 40.9659C215.63 40.6061 215.549 40.2936 215.386 40.0284C215.227 39.7595 214.999 39.5492 214.704 39.3977C214.412 39.2462 214.067 39.1705 213.67 39.1705C213.291 39.1705 212.937 39.2405 212.607 39.3807C212.281 39.517 212.016 39.714 211.812 39.9716C211.607 40.2254 211.497 40.5303 211.482 40.8864H209.783C209.802 40.2576 209.988 39.7045 210.34 39.2273C210.696 38.75 211.166 38.3769 211.749 38.108C212.333 37.839 212.98 37.7045 213.692 37.7045C214.439 37.7045 215.083 37.8504 215.624 38.142C216.17 38.4299 216.59 38.8144 216.886 39.2955C217.185 39.7765 217.333 40.303 217.329 40.875C217.333 41.5265 217.151 42.0795 216.783 42.5341C216.42 42.9886 215.935 43.2936 215.329 43.4489V43.5398C216.102 43.6572 216.7 43.964 217.124 44.4602C217.552 44.9564 217.764 45.572 217.761 46.3068C217.764 46.947 217.586 47.5208 217.227 48.0284C216.871 48.536 216.384 48.9356 215.766 49.2273C215.149 49.5152 214.442 49.6591 213.647 49.6591Z" fill="#B4B6C1"/>
</svg>
