<svg width="18" height="20" viewBox="0 0 18 20" fill="none" xmlns="http://www.w3.org/2000/svg">
<path d="M9.8988 0.942497C9.89957 0.927023 9.9 0.911494 9.9 0.895856C9.9 0.401068 9.49703 0 9 0C8.50298 0 8.10001 0.401068 8.10001 0.895856C8.10001 0.911494 8.10044 0.927078 8.10121 0.942552C5.08832 1.37479 2.2533 4.74759 2.70001 8.51063C2.7744 9.13732 2.20288 9.21964 1.4446 9.85462C0.728072 10.4547 -0.014933 11.0769 0.000228174 12.1993C0.000228174 13.7724 0.900008 14.6249 2.22144 15.0476C2.22144 15.0476 4.64162 15.9686 9.00011 15.9686C13.3586 15.9686 15.7788 15.0476 15.7788 15.0476C17.1002 14.6249 18.0002 13.729 18 12.1993C17.9999 11.0672 17.2573 10.4447 16.5448 9.84746C15.7899 9.21466 15.2244 9.14977 15.3002 8.51063C15.7469 4.74748 12.9118 1.37462 9.8988 0.942497Z" fill="#9395A3"/>
<path d="M5.78464 17.0437C5.38693 17.3405 5.3064 17.902 5.60457 18.2978C7.31459 20.5674 10.7346 20.5674 12.4447 18.2978C12.7428 17.902 12.6623 17.3405 12.2646 17.0437C11.867 16.7468 11.3028 16.827 11.0046 17.2229C10.0146 18.5367 8.03464 18.5367 7.04466 17.2229C6.74638 16.827 6.18223 16.7468 5.78464 17.0437Z" fill="#9395A3"/>
</svg>
